<svg xmlns="http://www.w3.org/2000/svg" viewBox="0 0 245.75 241.62"><defs><style>.cls-1{fill:#825f0d;}</style></defs><g id="Layer_2" data-name="Layer 2"><g id="leaf"><path class="cls-1" d="M218.06,181.27c-19.77-11-80.35-47-163.59-116.7,3,3,95.07,97.29,158.1,124.89a112.12,112.12,0,0,1-116.49,50,57.63,57.63,0,0,0,3.06-5.62,62.58,62.58,0,0,0,2.54-5.89c-10.59,3.1-14.82,3.45-20.86.76,2.54-2.09,5.34-5.76,7.66-9.22A110.93,110.93,0,0,1,57.18,215a139.8,139.8,0,0,1,9.21-10.82c-10.76,2.13-18-.19-23.81-3.37,4.36-1.68,7.14-4.27,10-7.89-9.19-2.46-15.92-4.58-24.09-9.27C32.86,182,34.22,179,35.41,173c-11-.44-13.93-2.8-18.81-7.29a34.72,34.72,0,0,0,9.68-5.42c-6.77-4.21-9.42-9.55-15-15,3.89-1.85,4.39-1.68,7.43-6.2-10.55-3.17-11.34-7.88-15-13.44,2.21-.85,5.47.48,9.58-1.26A111.15,111.15,0,0,1,1.46,106.66a70.81,70.81,0,0,0,12.46-3C4.76,97.43,1.79,94.39,0,88.05c3.82.73,9.56.33,14.2-.21A68.74,68.74,0,0,1,5.82,72.23c-.39-1-.75-2-1.07-2.92Q9,70.79,13.3,71.91c1.8.44,3.58.9,5.38,1.25a111.5,111.5,0,0,1-6.86-35.88,4,4,0,0,1,0-.68,2.78,2.78,0,0,1,.64-.19,111.26,111.26,0,0,1,36.23-4.93c-.94-1.6-1.92-3.16-2.92-4.72-1.61-2.46-3.36-4.91-5.2-7.27,1,0,2.06,0,3.11.1a67.47,67.47,0,0,1,17.47,3C60.16,18,58.7,12.41,56.8,9c6.6-.32,10.42,1.53,19.19,8.25A69.78,69.78,0,0,0,74.92,4.48a112.37,112.37,0,0,1,20.5,5.58c.34-4.45-2-7.12-1.86-9.48,6.41,1.66,11.14.9,17.52,9.88,3.31-4.32,3-4.74,3.5-9,7,3.57,12.89,4.37,19,9.43A34.75,34.75,0,0,0,135.68,0c5.8,3.19,9,5.21,12.88,15.52,5.34-3,7.75-5.29,7.94-10,7,6.24,11.19,11.92,16.47,19.86,2.5-3.85,4.07-7.32,4.27-12,4.87,4.47,9.39,10.6,10.81,21.5a137.17,137.17,0,0,1,7.3-12.19A112.25,112.25,0,0,1,209.57,51c2.52-3.31,5.12-7.11,6.32-10.22,4.45,4.89,5.46,9,5.91,20a62.27,62.27,0,0,0,4.78-4.27,62.24,62.24,0,0,0,4.34-4.7,112.05,112.05,0,0,1-12.86,129.45Z"/></g></g></svg>