<svg xmlns="http://www.w3.org/2000/svg" viewBox="0 0 512 512"><defs><style>.cls-1{fill:#825f0d;}</style></defs><g id="_512T" data-name="512T"><path class="cls-1" d="M218.31,420,275.2,96.92h55.29L273.61,420Zm28.22-98.3L254,270.31h25.48q71.22,0,107.86-20T424,191.12q0-23.2-19-35.15T349.15,144q-49.61,0-81.46,4.55l7.51-51.65q30-4.55,76.91-4.55,63.7,0,96.48,24.23t32.76,71.56q0,65.78-53,99.67T272,321.73ZM389.65,420l-44.6-143.35h58.48L451.32,420Z"/><path class="cls-1" d="M215.28,307c-16.64-9.27-67.61-39.5-137.65-98.19,2.48,2.54,80,81.86,133,105.08a94.34,94.34,0,0,1-98,42.06,50.35,50.35,0,0,0,2.58-4.73c.8-1.62,1.49-3.26,2.13-5-8.91,2.61-12.47,2.9-17.55.64a38.87,38.87,0,0,0,6.44-7.76,93.31,93.31,0,0,1-26.33-3.76,115.56,115.56,0,0,1,7.75-9.11c-9.06,1.79-15.16-.16-20-2.84,3.67-1.41,6-3.59,8.42-6.63-7.73-2.07-13.4-3.86-20.27-7.81,3.67-1.39,4.81-3.92,5.81-9-9.25-.37-11.71-2.35-15.82-6.13a29,29,0,0,0,8.14-4.57c-5.69-3.54-7.92-8-12.64-12.65,3.27-1.55,3.69-1.41,6.25-5.21-8.88-2.68-9.54-6.64-12.59-11.32,1.86-.71,4.61.4,8.07-1.06a93.33,93.33,0,0,1-10-14.85,60.27,60.27,0,0,0,10.48-2.57c-7.7-5.2-10.2-7.76-11.71-13.1,3.22.62,8,.28,12-.17a57.91,57.91,0,0,1-7.05-13.14c-.33-.83-.63-1.63-.9-2.46q3.56,1.26,7.2,2.2c1.51.36,3,.75,4.52,1a94,94,0,0,1-5.77-30.18,2.89,2.89,0,0,1,0-.58,2.49,2.49,0,0,1,.55-.16A93.27,93.27,0,0,1,72.73,181c-.78-1.35-1.61-2.66-2.45-4-1.35-2.07-2.82-4.13-4.38-6.12.87,0,1.74,0,2.62.08a56.91,56.91,0,0,1,14.7,2.5c-.81-3.85-2-8.54-3.63-11.39,5.55-.27,8.76,1.28,16.14,6.93a58.44,58.44,0,0,0-.9-10.75,94.39,94.39,0,0,1,17.25,4.7c.29-3.74-1.64-6-1.56-8,5.39,1.39,9.37.75,14.74,8.31,2.79-3.64,2.49-4,3-7.57,5.88,3,10.84,3.68,16,7.94a29.51,29.51,0,0,0,1.75-9.18c4.88,2.69,7.55,4.39,10.84,13.06,4.49-2.56,6.52-4.45,6.68-8.38,5.93,5.25,9.42,10,13.86,16.71,2.1-3.24,3.43-6.15,3.59-10.08,4.1,3.76,7.9,8.91,9.1,18.09a112.08,112.08,0,0,1,6.14-10.26,94.13,94.13,0,0,1,12,23.76,39.31,39.31,0,0,0,5.32-8.6c3.75,4.11,4.6,7.59,5,16.86,1.41-1.14,2.72-2.32,4-3.6a52.52,52.52,0,0,0,3.65-3.95A94.26,94.26,0,0,1,215.28,307Z"/></g></svg>